<?xml version="1.0" encoding="utf-8"?>
<!-- Generator: Adobe Illustrator 21.0.0, SVG Export Plug-In . SVG Version: 6.00 Build 0)  -->
<svg version="1.1" id="Layer_1" xmlns="http://www.w3.org/2000/svg" xmlns:xlink="http://www.w3.org/1999/xlink" x="0px" y="0px"
	 viewBox="0 0 200 200" style="enable-background:new 0 0 200 200;" xml:space="preserve">
<style type="text/css">
	.st0{fill:#00ADCB;}
</style>
<title>x</title>
<desc>Created with Sketch.</desc>
<g>
	<path class="st0" d="M72.5,34.6c-5.2,0-9.5,4.2-9.5,9.5v43.6c2.2-2.2,5.6-3.6,9.5-3.6s7.2,1.4,9.5,3.6V44
		C82,38.8,77.8,34.6,72.5,34.6z"/>
	<path d="M101.2,89.3c-7.3,0-14.2,2.2-20,6.1c-1.5-3.3-4.8-5.5-8.6-5.5c-5.2,0-9.5,4.2-9.5,9.5v59.5c0,5.2,4.2,9.5,9.5,9.5
		s9.5-4.2,9.5-9.5v-28.8c0-12,8.6-21.8,19.2-21.8c10.6,0,19.2,9.8,19.2,21.8v28.8c0,5.2,4.2,9.5,9.5,9.5c5.2,0,9.5-4.2,9.5-9.5
		v-28.8C139.3,107.6,122.2,89.3,101.2,89.3z"/>
</g>
</svg>
